<svg xmlns="http://www.w3.org/2000/svg" xmlns:xlink="http://www.w3.org/1999/xlink" x="0px" y="0px" width="250px" height="500px" viewBox="0 0 250 500" enable-background="new 0 0 250 500" xml:space="preserve">
    <pattern  width="107.578" height="169.68" patternUnits="userSpaceOnUse" id="New_Pattern_Swatch_8" viewBox="0 -169.68 107.578 169.68" overflow="visible">
        <g>
            <polygon fill="none" points="0,-169.68 107.578,-169.68 107.578,0 0,0"/>
            <path fill="#888888" d="M72.726-35.24c0.012,0.185-0.078,0.36-0.268,0.403c-0.043,0.02-0.087,0.039-0.14,0.044 c-1.083,0.121-2.081,0.646-2.779,1.488c-0.76,0.917-0.918,2.052-1.018,3.197c0.004,0.045,0.009,0.09,0.013,0.135 c0.025,0.298-0.212,0.429-0.445,0.407c-0.232,0.022-0.47-0.109-0.445-0.407c0.004-0.045,0.009-0.09,0.013-0.135 c-0.1-1.145-0.258-2.28-1.018-3.197c-0.698-0.841-1.696-1.367-2.779-1.488c-0.053-0.006-0.097-0.025-0.14-0.044 c-0.19-0.043-0.279-0.218-0.268-0.403c-0.012-0.186,0.078-0.36,0.268-0.404c0.043-0.02,0.087-0.039,0.14-0.044 c1.083-0.121,2.081-0.646,2.779-1.488c0.76-0.917,0.918-2.052,1.018-3.197c-0.004-0.045-0.009-0.09-0.013-0.135 c-0.025-0.297,0.212-0.429,0.445-0.407c0.232-0.022,0.47,0.109,0.445,0.407c-0.004,0.045-0.009,0.09-0.013,0.135 c0.1,1.145,0.258,2.28,1.018,3.197c0.698,0.841,1.696,1.367,2.779,1.488c0.053,0.006,0.097,0.025,0.14,0.044 C72.648-35.6,72.737-35.425,72.726-35.24z M70.777-35.24c-0.7-0.295-1.336-0.722-1.849-1.325c-0.392-0.46-0.653-0.966-0.839-1.499 c-0.186,0.533-0.447,1.039-0.839,1.499c-0.513,0.603-1.149,1.03-1.849,1.325c0.7,0.295,1.336,0.722,1.849,1.324 c0.392,0.46,0.653,0.966,0.839,1.499c0.186-0.533,0.447-1.038,0.839-1.499C69.441-34.518,70.077-34.945,70.777-35.24z"/>
            <path fill="#888888" d="M43.581-112.794c0.012,0.185-0.078,0.36-0.268,0.403c-0.043,0.02-0.087,0.039-0.14,0.044 c-1.083,0.121-2.081,0.646-2.779,1.488c-0.76,0.917-0.918,2.053-1.019,3.197c0.004,0.045,0.009,0.09,0.013,0.136 c0.025,0.297-0.212,0.429-0.445,0.407c-0.233,0.022-0.47-0.109-0.445-0.407c0.004-0.045,0.009-0.09,0.013-0.136 c-0.1-1.144-0.258-2.28-1.018-3.197c-0.698-0.841-1.696-1.367-2.779-1.488c-0.053-0.006-0.097-0.025-0.14-0.044 c-0.19-0.043-0.279-0.218-0.268-0.403c-0.012-0.186,0.078-0.36,0.268-0.403c0.043-0.02,0.086-0.039,0.14-0.045 c1.083-0.121,2.082-0.646,2.779-1.488c0.76-0.917,0.918-2.052,1.018-3.197c-0.004-0.045-0.009-0.09-0.013-0.135 c-0.025-0.297,0.212-0.429,0.445-0.407c0.232-0.022,0.47,0.109,0.445,0.407c-0.004,0.045-0.009,0.09-0.013,0.135 c0.1,1.145,0.258,2.28,1.019,3.197c0.698,0.842,1.696,1.367,2.779,1.488c0.053,0.006,0.097,0.025,0.14,0.045 C43.503-113.154,43.592-112.979,43.581-112.794z M41.632-112.794c-0.7-0.295-1.336-0.722-1.849-1.325 c-0.392-0.46-0.653-0.965-0.839-1.498c-0.186,0.533-0.447,1.038-0.839,1.498c-0.513,0.603-1.149,1.03-1.849,1.325 c0.7,0.295,1.336,0.722,1.849,1.325c0.392,0.46,0.653,0.965,0.839,1.498c0.186-0.533,0.447-1.038,0.839-1.498 C40.296-112.072,40.932-112.499,41.632-112.794z"/>
            <path fill="#888888" d="M34.788-84.84c0.008,0.139-0.058,0.27-0.201,0.302c-0.032,0.015-0.065,0.029-0.104,0.034 c-0.811,0.09-1.558,0.484-2.081,1.114c-0.569,0.686-0.687,1.536-0.762,2.393c0.003,0.034,0.007,0.067,0.01,0.101 c0.019,0.223-0.159,0.321-0.333,0.305c-0.174,0.017-0.352-0.082-0.333-0.305c0.003-0.034,0.007-0.067,0.01-0.101 c-0.075-0.857-0.193-1.707-0.762-2.393c-0.522-0.63-1.27-1.023-2.081-1.114c-0.04-0.005-0.073-0.019-0.105-0.034 c-0.142-0.032-0.209-0.163-0.2-0.302c-0.009-0.139,0.058-0.27,0.2-0.302c0.032-0.015,0.065-0.029,0.105-0.033 c0.811-0.091,1.558-0.484,2.081-1.114c0.569-0.686,0.687-1.537,0.762-2.393c-0.003-0.034-0.007-0.067-0.01-0.102 c-0.019-0.223,0.159-0.321,0.333-0.304c0.174-0.017,0.352,0.082,0.333,0.304c-0.003,0.034-0.007,0.067-0.01,0.102 c0.075,0.856,0.193,1.707,0.762,2.393c0.522,0.63,1.27,1.023,2.081,1.114c0.04,0.004,0.073,0.019,0.104,0.033 C34.73-85.11,34.796-84.979,34.788-84.84z M33.329-84.84c-0.524-0.221-1-0.541-1.384-0.992c-0.293-0.344-0.489-0.723-0.628-1.122 c-0.139,0.399-0.335,0.777-0.628,1.122c-0.384,0.451-0.86,0.771-1.384,0.992c0.524,0.221,1,0.541,1.384,0.992 c0.293,0.344,0.489,0.723,0.628,1.121c0.139-0.398,0.335-0.777,0.628-1.121C32.329-84.299,32.805-84.619,33.329-84.84z"/>
            <path fill="#888888" d="M86.899-165.931c-0.03-0.014-0.062-0.027-0.099-0.032c-0.77-0.086-1.479-0.459-1.976-1.058 c-0.541-0.651-0.653-1.459-0.724-2.272c0.002-0.032,0.006-0.064,0.009-0.096c0.018-0.211-0.151-0.305-0.316-0.289 c-0.166-0.016-0.334,0.078-0.316,0.289c0.003,0.032,0.006,0.064,0.009,0.096c-0.071,0.813-0.184,1.621-0.724,2.272 c-0.496,0.598-1.206,0.972-1.975,1.058c-0.038,0.004-0.069,0.018-0.1,0.032c-0.135,0.031-0.199,0.155-0.19,0.287 c-0.008,0.131,0.055,0.256,0.19,0.287c0.03,0.014,0.062,0.027,0.1,0.032c0.77,0.086,1.479,0.459,1.975,1.058 c0.541,0.651,0.653,1.459,0.724,2.272c-0.003,0.032-0.006,0.064-0.009,0.096c-0.018,0.211,0.151,0.305,0.316,0.289 c0.165,0.016,0.334-0.078,0.316-0.289c-0.002-0.032-0.006-0.064-0.009-0.096c0.071-0.813,0.183-1.621,0.724-2.272 c0.496-0.598,1.206-0.972,1.976-1.058c0.038-0.004,0.069-0.018,0.099-0.032c0.135-0.031,0.199-0.155,0.19-0.287 C87.098-165.776,87.035-165.9,86.899-165.931z"/>
            <path fill="#888888" d="M64.12-41.774c-0.7,0.294-1.34,0.726-1.85,1.322c-0.389,0.467-0.657,0.968-0.838,1.504 c-0.19-0.536-0.449-1.038-0.838-1.504c-0.519-0.596-1.15-1.028-1.85-1.322c0.7-0.294,1.332-0.718,1.85-1.323 c0.389-0.458,0.648-0.968,0.838-1.495c0.182,0.527,0.45,1.037,0.838,1.495C62.78-42.492,63.42-42.068,64.12-41.774z"/>
            <path fill="#888888" d="M21.689-98.615c-0.7,0.294-1.34,0.726-1.85,1.323c-0.389,0.467-0.657,0.968-0.839,1.504 c-0.19-0.536-0.449-1.037-0.838-1.504c-0.519-0.597-1.15-1.029-1.85-1.323c0.7-0.294,1.331-0.717,1.85-1.322 c0.389-0.458,0.648-0.968,0.838-1.496c0.182,0.527,0.45,1.037,0.839,1.496C20.35-99.332,20.989-98.909,21.689-98.615z"/>
            <path fill="#888888" d="M31.241-155.968c-0.7,0.294-1.34,0.726-1.85,1.322c-0.389,0.467-0.657,0.968-0.838,1.504 c-0.19-0.536-0.45-1.038-0.838-1.504c-0.519-0.596-1.15-1.028-1.85-1.322c0.7-0.294,1.332-0.717,1.85-1.323 c0.389-0.458,0.648-0.968,0.838-1.495c0.182,0.527,0.449,1.037,0.838,1.495C29.901-156.686,30.541-156.262,31.241-155.968z"/>
            <path fill="#888888" d="M106.628-32.421c-0.7,0.293-1.34,0.726-1.85,1.322c-0.389,0.467-0.657,0.968-0.838,1.504 c-0.19-0.536-0.45-1.038-0.838-1.504c-0.519-0.596-1.15-1.029-1.85-1.322c0.7-0.294,1.332-0.718,1.85-1.323 c0.389-0.458,0.648-0.968,0.838-1.495c0.182,0.527,0.449,1.037,0.838,1.495C105.289-33.139,105.928-32.715,106.628-32.421z"/>
            <path fill="#888888" d="M29.847-12.299c-0.7,0.294-1.34,0.726-1.85,1.322c-0.389,0.467-0.657,0.968-0.838,1.504 c-0.19-0.536-0.45-1.038-0.838-1.504c-0.519-0.596-1.15-1.028-1.85-1.322c0.7-0.294,1.331-0.718,1.85-1.323 c0.389-0.458,0.648-0.968,0.838-1.495c0.182,0.527,0.449,1.037,0.838,1.495C28.507-13.017,29.146-12.593,29.847-12.299z"/>
            <path fill="#888888" d="M73.607-110.647c1.363-0.129,2.959,0.736,3.023,2.229c0.063,1.468-0.762,2.985-2.286,3.28 c-1.47,0.284-2.882-0.721-3.152-2.183c-0.279-1.509,0.833-3.155,2.382-3.323C73.585-110.645,73.596-110.646,73.607-110.647z M75.77-108.293c-0.01-0.945-0.792-1.507-1.704-1.45c-1.283,0.079-2.362,1.151-1.978,2.47c0.294,1.011,1.374,1.565,2.362,1.204 C75.365-106.404,75.78-107.365,75.77-108.293z"/>
            <path fill="#888888" d="M73.206-118.67c-0.746,0.47-1.739,0.058-2.098-0.704c-0.586-1.247,1.002-2.389,2.088-1.712 c0.184,0.114,0.33,0.255,0.44,0.411C74.091-120.034,73.93-119.126,73.206-118.67z M72.193-120.327 c-0.763,0.334,0.017,1.275,0.577,0.91C73.458-119.864,72.947-120.657,72.193-120.327z"/>
            <path fill="#888888" d="M81.267-110.176c-0.746,0.47-1.739,0.058-2.098-0.704c-0.586-1.247,1.001-2.389,2.088-1.712 c0.184,0.114,0.331,0.255,0.441,0.411C82.151-111.54,81.991-110.632,81.267-110.176z M80.253-111.833 c-0.763,0.333,0.017,1.275,0.577,0.91C81.518-111.37,81.007-112.163,80.253-111.833z"/>
            <path fill="#888888" d="M51.795-0.199c-0.746,0.47-1.74,0.058-2.098-0.704c-0.586-1.247,1.002-2.389,2.088-1.712 c0.184,0.114,0.331,0.254,0.44,0.411C52.68-1.563,52.519-0.655,51.795-0.199z M50.782-1.856c-0.763,0.333,0.017,1.275,0.577,0.91 C52.046-1.393,51.535-2.186,50.782-1.856z"/>
            <path fill="#888888" d="M5.133-71.118c-0.746,0.47-1.739,0.058-2.098-0.704c-0.586-1.247,1.002-2.39,2.088-1.712 c0.184,0.114,0.33,0.254,0.44,0.411C6.018-72.481,5.857-71.574,5.133-71.118z M4.12-72.775c-0.763,0.334,0.017,1.275,0.577,0.911 C5.384-72.312,4.873-73.104,4.12-72.775z"/>
            <path fill="#888888" d="M2.224-130.082c-0.746,0.47-1.74,0.058-2.098-0.704c-0.586-1.247,1.002-2.39,2.088-1.712 c0.184,0.114,0.33,0.254,0.44,0.411C3.109-131.445,2.948-130.538,2.224-130.082z M1.21-131.739 c-0.763,0.334,0.017,1.275,0.577,0.911C2.475-131.275,1.964-132.068,1.21-131.739z"/>
            <path fill="#888888" d="M23.879-136.533c-1.931,0-1.934,3,0,3C25.809-133.533,25.813-136.533,23.879-136.533z"/>
            <path fill="#888888" d="M73.997-62.18c-1.931,0-1.934,3,0,3C75.927-59.18,75.93-62.18,73.997-62.18z"/>
            <path fill="#888888" d="M40.82-9.004c-1.93,0-1.934,3,0,3C42.75-6.004,42.753-9.004,40.82-9.004z"/>
            <path fill="#888888" d="M40.82-139.533c-0.644,0-0.645,1,0,1C41.463-138.533,41.464-139.533,40.82-139.533z"/>
            <path fill="#888888" d="M5.055-159.063c-0.644,0-0.645,1,0,1C5.699-158.063,5.7-159.063,5.055-159.063z"/>
            <path fill="#888888" d="M16.82-150.122c-0.644,0-0.645,1,0,1C17.463-149.122,17.464-150.122,16.82-150.122z"/>
            <path fill="#888888" d="M20.35-167.298c-0.644,0-0.645,1,0,1C20.993-166.298,20.994-167.298,20.35-167.298z"/>
            <path fill="#888888" d="M49.055-163.063c-0.644,0-0.645,1,0,1C49.699-162.063,49.7-163.063,49.055-163.063z"/>
            <path fill="#888888" d="M54.232-159.533c-0.644,0-0.645,1,0,1C54.875-158.533,54.876-159.533,54.232-159.533z"/>
            <path fill="#888888" d="M68.114-165.651c-0.644,0-0.645,1,0,1C68.758-164.651,68.759-165.651,68.114-165.651z"/>
            <path fill="#888888" d="M91.879-149.651c-0.644,0-0.645,1,0,1C92.522-148.651,92.523-149.651,91.879-149.651z"/>
            <path fill="#888888" d="M67.173-136.475c-0.644,0-0.645,1,0,1C67.816-135.475,67.817-136.475,67.173-136.475z"/>
            <path fill="#888888" d="M78.467-128.709c-0.644,0-0.645,1,0,1C79.11-127.709,79.112-128.709,78.467-128.709z"/>
            <path fill="#888888" d="M85.761-120.945c-0.644,0-0.645,1,0,1C86.405-119.945,86.406-120.945,85.761-120.945z"/>
            <path fill="#888888" d="M89.055-102.592c-0.644,0-0.645,1,0,1C89.699-101.592,89.7-102.592,89.055-102.592z"/>
            <path fill="#888888" d="M74.232-94.592c-0.644,0-0.645,1,0,1C74.875-93.592,74.876-94.592,74.232-94.592z"/>
            <path fill="#888888" d="M61.291-109.651c-0.644,0-0.645,1,0,1C61.934-108.651,61.935-109.651,61.291-109.651z"/>
            <path fill="#888888" d="M81.055-104.004c-0.644,0-0.645,1,0,1C81.699-103.004,81.7-104.004,81.055-104.004z"/>
            <path fill="#888888" d="M85.997-111.533c-0.644,0-0.645,1,0,1C86.64-110.533,86.641-111.533,85.997-111.533z"/>
            <path fill="#888888" d="M86.232-82.357c-0.644,0-0.645,1,0,1C86.875-81.357,86.876-82.357,86.232-82.357z"/>
            <path fill="#888888" d="M53.526-54.357c-0.644,0-0.645,1,0,1C54.169-53.357,54.17-54.357,53.526-54.357z"/>
            <path fill="#888888" d="M32.82-60.004c-0.644,0-0.645,1,0,1C33.463-59.004,33.464-60.004,32.82-60.004z"/>
            <path fill="#888888" d="M17.761-78.122c-0.644,0-0.645,1,0,1C18.405-77.122,18.406-78.122,17.761-78.122z"/>
            <path fill="#888888" d="M40.35-98.592c-0.644,0-0.645,1,0,1C40.993-97.592,40.994-98.592,40.35-98.592z"/>
            <path fill="#888888" d="M48.114-78.827c-0.644,0-0.645,1,0,1C48.758-77.827,48.759-78.827,48.114-78.827z"/>
            <path fill="#888888" d="M23.879-90.827c-0.644,0-0.645,1,0,1C24.522-89.827,24.523-90.827,23.879-90.827z"/>
            <path fill="#888888" d="M43.879-89.416c-0.644,0-0.645,1,0,1C44.522-88.416,44.523-89.416,43.879-89.416z"/>
            <path fill="#888888" d="M37.526-73.651c-0.644,0-0.645,1,0,1C38.169-72.651,38.17-73.651,37.526-73.651z"/>
            <path fill="#888888" d="M33.055-75.533c-0.644,0-0.645,1,0,1C33.699-74.533,33.7-75.533,33.055-75.533z"/>
            <path fill="#888888" d="M43.644-60.709c-0.644,0-0.645,1,0,1C44.287-59.709,44.288-60.709,43.644-60.709z"/>
            <path fill="#888888" d="M31.173-34.827c-0.644,0-0.645,1,0,1C31.816-33.827,31.817-34.827,31.173-34.827z"/>
            <path fill="#888888" d="M49.761-27.769c-0.644,0-0.645,1,0,1C50.405-26.769,50.406-27.769,49.761-27.769z"/>
            <path fill="#888888" d="M59.644-9.651c-0.644,0-0.645,1,0,1C60.287-8.651,60.288-9.651,59.644-9.651z"/>
            <path fill="#888888" d="M46.938-14.827c-0.643,0-0.645,1,0,1C47.581-13.827,47.582-14.827,46.938-14.827z"/>
            <path fill="#888888" d="M11.644-8.71c-0.644,0-0.645,1,0,1C12.287-7.71,12.288-8.71,11.644-8.71z"/>
            <path fill="#888888" d="M11.408-30.827c-0.644,0-0.645,1,0,1C12.052-29.827,12.053-30.827,11.408-30.827z"/>
            <path fill="#888888" d="M94.938-56.945c-0.643,0-0.645,1,0,1C95.581-55.945,95.582-56.945,94.938-56.945z"/>
            <path fill="#888888" d="M86.938-21.651c-0.643,0-0.645,1,0,1C87.581-20.651,87.582-21.651,86.938-21.651z"/>
            <path fill="#888888" d="M102.467-9.18c-0.644,0-0.645,1,0,1C103.11-8.18,103.112-9.18,102.467-9.18z"/>
            <path fill="#888888" d="M103.879-49.416c-0.644,0-0.645,1,0,1C104.522-48.416,104.523-49.416,103.879-49.416z"/>
            <path fill="#888888" d="M103.173-86.827c-0.644,0-0.645,1,0,1C103.816-85.827,103.817-86.827,103.173-86.827z"/>
            <path fill="#888888" d="M104.35-102.592c-0.644,0-0.645,1,0,1C104.993-101.592,104.994-102.592,104.35-102.592z"/>
            <path fill="#888888" d="M106.467-113.18c-0.644,0-0.645,1,0,1C107.11-112.18,107.112-113.18,106.467-113.18z"/>
            <path fill="#888888" d="M106.467-156.004c-0.644,0-0.645,1,0,1C107.11-155.004,107.112-156.004,106.467-156.004z"/>
            <path fill="#888888" d="M104.114-166.122c-0.644,0-0.645,1,0,1C104.758-165.122,104.759-166.122,104.114-166.122z"/>
            <path fill="#888888" d="M6.702-56.709c-0.643,0-0.645,1,0,1C7.346-55.709,7.347-56.709,6.702-56.709z"/>
            <path fill="#888888" d="M14.467-112.709c-0.644,0-0.645,1,0,1C15.11-111.709,15.112-112.709,14.467-112.709z"/>
            <path fill="#888888" d="M69.997-66.592c-0.644,0-0.645,1,0,1C70.64-65.592,70.641-66.592,69.997-66.592z"/>
            <path fill="#888888" d="M82.232-64.004c-0.644,0-0.645,1,0,1C82.875-63.004,82.876-64.004,82.232-64.004z"/>
            <path fill="#888888" d="M80.82-51.769c-0.644,0-0.645,1,0,1C81.463-50.769,81.464-51.769,80.82-51.769z"/>
            <path fill="#888888" d="M80.584-82.357c-0.643,0-0.644,1,0,1C81.228-81.357,81.229-82.357,80.584-82.357z"/>
            <path fill="#888888" d="M79.173-97.416c-0.644,0-0.645,1,0,1C79.816-96.416,79.817-97.416,79.173-97.416z"/>
            <path fill="#888888" d="M85.997-105.18c-0.644,0-0.645,1,0,1C86.64-104.18,86.641-105.18,85.997-105.18z"/>
            <path fill="#888888" d="M92.82-111.533c-0.644,0-0.645,1,0,1C93.463-110.533,93.464-111.533,92.82-111.533z"/>
            <path fill="#888888" d="M85.997-136.004c-0.644,0-0.645,1,0,1C86.64-135.004,86.641-136.004,85.997-136.004z"/>
            <path fill="#888888" d="M27.173-149.18c-0.644,0-0.645,1,0,1C27.816-148.18,27.817-149.18,27.173-149.18z"/>
            <path fill="#888888" d="M38.938-154.357c-0.643,0-0.645,1,0,1C39.581-153.357,39.582-154.357,38.938-154.357z"/>
            <path fill="#888888" d="M34.938-165.416c-0.643,0-0.645,1,0,1C35.581-164.416,35.582-165.416,34.938-165.416z"/>
            <path fill="#888888" d="M8.82-167.063c-0.643,0-0.645,1,0,1C9.463-166.063,9.464-167.063,8.82-167.063z"/>
            <path fill="#888888" d="M30.232-119.298c-0.644,0-0.645,1,0,1C30.875-118.298,30.876-119.298,30.232-119.298z"/>
            <path fill="#888888" d="M53.761-120.709c-0.644,0-0.645,1,0,1C54.405-119.709,54.406-120.709,53.761-120.709z"/>
            <path fill="#888888" d="M49.526-104.475c-0.644,0-0.645,1,0,1C50.169-103.475,50.17-104.475,49.526-104.475z"/>
            <path fill="#888888" d="M31.644-107.533c-0.644,0-0.645,1,0,1C32.287-106.533,32.288-107.533,31.644-107.533z"/>
            <path fill="#888888" d="M60.114-84.945c-0.644,0-0.645,1,0,1C60.758-83.945,60.759-84.945,60.114-84.945z"/>
            <path fill="#888888" d="M39.644-44.004c-0.644,0-0.645,1,0,1C40.287-43.004,40.288-44.004,39.644-44.004z"/>
            <path fill="#888888" d="M61.526-54.592c-0.644,0-0.645,1,0,1C62.169-53.592,62.17-54.592,61.526-54.592z"/>
            <path fill="#888888" d="M89.997-25.18c-0.644,0-0.645,1,0,1C90.64-24.18,90.641-25.18,89.997-25.18z"/>
            <path fill="#888888" d="M58.467-4.239c-0.644,0-0.645,1,0,1C59.11-3.239,59.112-4.239,58.467-4.239z"/>
            <path fill="#888888" d="M64.584-4.239c-0.643,0-0.644,1,0,1C65.228-3.239,65.229-4.239,64.584-4.239z"/>
            <path fill="#888888" d="M71.644-2.592c-0.644,0-0.645,1,0,1C72.287-1.592,72.288-2.592,71.644-2.592z"/>
            <path fill="#888888" d="M27.879-39.533c-0.644,0-0.645,1,0,1C28.522-38.533,28.523-39.533,27.879-39.533z"/>
            <path fill="#888888" d="M36.584-28.239c-0.643,0-0.644,1,0,1C37.228-27.239,37.229-28.239,36.584-28.239z"/>
            <path fill="#888888" d="M5.997-69.416c-0.644,0-0.645,1,0,1C6.64-68.416,6.641-69.416,5.997-69.416z"/>
            <path fill="#888888" d="M6.232-84.709c-0.644,0-0.645,1,0,1C6.875-83.709,6.876-84.709,6.232-84.709z"/>
            <path fill="#888888" d="M69.526-148.709c-0.644,0-0.645,1,0,1C70.169-147.709,70.17-148.709,69.526-148.709z"/>
            <path fill="#888888" d="M101.055-11.298c-0.644,0-0.645,1,0,1C101.699-10.298,101.7-11.298,101.055-11.298z"/>
        </g>
    </pattern>
    <g>
        <rect fill="#282935" width="250" height="500"/>
        <pattern  id="SVGID_1_" xlink:href="#New_Pattern_Swatch_8" patternTransform="matrix(1.0008 0 0 1 -0.2817 0)">
        </pattern>
        <rect fill="url(#SVGID_1_)" width="250" height="500"/>
    </g>
</svg>